PathFileType	4	(X/Y/Z)	/Users/itak/Documents/Research/Walk-IL/dataset/trc/00309_00010.trc
DataRate	CameraRate	NumFrames	NumMarkers	Units	OrigDataRate	OrigDataStartFrame	OrigNumFrames
100.000000	100.000000	4	53	mm	100.000000	474	542
Frame#	Time	RPSI			LPSI			L3			STRN			T10			C7			CLAV			RBAK			LBAK			LSHO			LUPA			LAEL			LAOL			LWTS			LWPS			LFRA			LIFD			LHPS			LHTS			RSHO			RUPA			RAEL			RAOL			RWTS			RWPS			RFRA			RIFD			RHTS			RHPS			RBHD			LFHD			RFHD			LBHD			LHIP			RHIP			RASI			LASI			LKNE			LTHI			LANK			LTIP			LTOE			LMT1			LMT5			LHEE			RKNE			RTHI			RANK			RTIP			RTOE			RMT1			RMT5			RHEE			
		X1	Y1	Z1	X2	Y2	Z2	X3	Y3	Z3	X4	Y4	Z4	X5	Y5	Z5	X6	Y6	Z6	X7	Y7	Z7	X8	Y8	Z8	X9	Y9	Z9	X10	Y10	Z10	X11	Y11	Z11	X12	Y12	Z12	X13	Y13	Z13	X14	Y14	Z14	X15	Y15	Z15	X16	Y16	Z16	X17	Y17	Z17	X18	Y18	Z18	X19	Y19	Z19	X20	Y20	Z20	X21	Y21	Z21	X22	Y22	Z22	X23	Y23	Z23	X24	Y24	Z24	X25	Y25	Z25	X26	Y26	Z26	X27	Y27	Z27	X28	Y28	Z28	X29	Y29	Z29	X30	Y30	Z30	X31	Y31	Z31	X32	Y32	Z32	X33	Y33	Z33	X34	Y34	Z34	X35	Y35	Z35	X36	Y36	Z36	X37	Y37	Z37	X38	Y38	Z38	X39	Y39	Z39	X40	Y40	Z40	X41	Y41	Z41	X42	Y42	Z42	X43	Y43	Z43	X44	Y44	Z44	X45	Y45	Z45	X46	Y46	Z46	X47	Y47	Z47	X48	Y48	Z48	X49	Y49	Z49	X50	Y50	Z50	X51	Y51	Z51	X52	Y52	Z52	X53	Y53	Z53	

475	4.74	131.0352325439453	1006.298156738281	833.8853149414062	305.5146789550781	999.1070556640625	847.7514038085938	226.4247894287109	1070.678955078125	854.67529296875	222.6290588378906	1256.656860351562	1100.14306640625	232.7903900146484	1188.573852539062	836.103515625	252.8555908203125	1434.036987304688	878.6990356445312	234.3573150634766	1356.032470703125	1036.720458984375	175.2646484375	1298.946655273438	822.51220703125	358.1730651855469	1393.415893554688	872.8722534179688	402.7009887695312	1401.152709960938	966.5917358398438	472.6246032714844	1279.032470703125	962.4237060546875	473.6902160644531	1080.770629882812	1016.424926757812	421.9105224609375	1055.117431640625	951.1367797851562	392.0838012695312	903.126953125	1154.417846679688	457.0415954589844	876.625	1138.550170898438	469.1370239257812	987.3174438476562	1063.260620117188	372.125	737.9898681640625	1230.616088867188	443.3406066894531	797.6279907226562	1176.643432617188	398.6625061035156	823.877197265625	1217.993774414062	87.95581817626953	1415.585083007812	933.7470092773438	20.83750343322754	1357.700561523438	925.0955200195312	-35.39438247680664	1093.063232421875	918.2332153320312	53.21323776245117	1083.453979492188	889.4594116210938	10.55496978759766	862.3999633789062	1008.226379394531	-68.22868347167969	866.3634033203125	975.7902221679688	-51.61878204345703	1026.91064453125	944.1099853515625	3.513519525527954	676.450439453125	992.5941772460938	-7.185359001159668	743.9909057617188	1025.861206054688	-67.55119323730469	751.2238159179688	988.8389282226562	182.9932861328125	1586.594848632812	886.1417236328125	278.7048034667969	1642.995727539062	1068.616821289062	186.2005615234375	1638.53076171875	1054.026733398438	327.8243103027344	1582.724975585938	910.4376220703125	396.8034362792969	953.0443725585938	924.2850952148438	25.26445388793945	958.2213745117188	929.317138671875	87.99368286132812	965.6038818359375	1052.31884765625	339.8539428710938	959.595458984375	1057.805297851562	355.5961608886719	490.3672485351562	965.7484130859375	378.1819763183594	632.0696411132812	967.8109741210938	337.385009765625	52.64445877075195	866.2749633789062	356.1840209960938	267.1165161132812	911.1424560546875	253.4594421386719	35.65269088745117	1066.538940429688	225.7127838134766	32.37180328369141	988.6737670898438	336.4063415527344	43.39553451538086	989.9827270507812	282.5160522460938	51.50427627563477	814.5529174804688	46.44277191162109	485.09765625	992.7367553710938	21.32674598693848	751.5699462890625	1005.536804199219	68.40785217285156	45.09841156005859	909.3348999023438	55.42419815063477	360.4866333007812	996.2064819335938	110.665641784668	42.61736297607422	1105.075927734375	152.8653411865234	36.80470275878906	1049.411499023438	42.20448303222656	36.62648010253906	1011.697814941406	118.4460220336914	39.07741928100586	858.140869140625	
476	4.75	129.6394500732422	1007.068359375	835.2310180664062	304.0870361328125	999.5000610351562	848.6192626953125	225.2026214599609	1071.064208984375	855.8272094726562	221.6553802490234	1256.792236328125	1101.45263671875	231.5264129638672	1188.836791992188	837.5195922851562	251.5388946533203	1434.314086914062	880.028076171875	233.2756195068359	1356.255249023438	1038.196655273438	173.857421875	1299.09033203125	823.8767700195312	356.8546752929688	1393.77099609375	874.1234741210938	401.5640869140625	1401.318359375	967.8148803710938	471.343505859375	1279.061157226562	962.8948364257812	471.598876953125	1079.986572265625	1014.671508789062	418.9454345703125	1055.521362304688	949.6425170898438	390.371826171875	898.5823364257812	1148.911254882812	455.2217102050781	872.550537109375	1132.031127929688	467.2205200195312	985.3031616210938	1059.573852539062	370.4650573730469	731.470458984375	1220.400512695312	441.49755859375	792.4835815429688	1167.849975585938	396.8873901367188	817.55224609375	1210.040649414062	86.70667266845703	1415.751708984375	935.1632690429688	19.52466011047363	1357.886352539062	926.5723876953125	-37.51038360595703	1093.411987304688	921.0316162109375	51.05472564697266	1083.4228515625	891.352294921875	10.12981510162354	863.0248413085938	1010.989685058594	-69.53488922119141	867.317626953125	980.9036254882812	-53.30763244628906	1027.354370117188	947.260986328125	1.010375142097473	676.968017578125	997.0425415039062	-7.844850540161133	744.7977905273438	1029.961547851562	-69.52313995361328	752.3214721679688	995.0979614257812	181.234130859375	1586.50146484375	887.2157592773438	277.0908508300781	1643.546630859375	1069.453247070312	184.5876617431641	1638.824584960938	1055.015502929688	326.1578674316406	1583.00390625	911.3798828125	395.4830932617188	953.162109375	924.8244018554688	24.16233253479004	958.3758544921875	930.6871337890625	87.13196563720703	965.5489501953125	1053.598510742188	339.1072998046875	959.4949951171875	1058.444946289062	354.8679504394531	490.4534606933594	964.9374389648438	377.313232421875	632.1104125976562	967.2781982421875	336.8764038085938	52.5599250793457	866.1353759765625	355.5878601074219	267.3677673339844	910.346435546875	253.6117553710938	35.70722198486328	1066.704223632812	225.5880889892578	32.56726455688477	988.9271850585938	336.3138122558594	43.48140335083008	989.94921875	281.7746887207031	51.40920257568359	814.5963745117188	45.97843170166016	485.1150817871094	990.6412353515625	20.90750312805176	751.62939453125	1006.443176269531	68.33567810058594	45.02889633178711	909.249755859375	55.35274124145508	360.7148742675781	994.2904663085938	110.6734848022461	42.64228820800781	1105.04833984375	152.8248596191406	36.75504302978516	1049.3681640625	42.23497772216797	36.62445068359375	1011.684997558594	118.3559494018555	38.9030647277832	858.0935668945312	
477	4.76	128.2003784179688	1007.724304199219	836.5463256835938	302.6388854980469	999.8115234375	849.3685913085938	223.9299011230469	1071.377197265625	856.8942260742188	220.6452331542969	1256.84326171875	1102.67578125	230.2775573730469	1189.062866210938	838.8274536132812	250.2516021728516	1434.542724609375	881.2966918945312	232.1731414794922	1356.367797851562	1039.540283203125	172.5018157958984	1299.18212890625	825.1570434570312	355.5788269042969	1394.056762695312	875.3372192382812	400.4496459960938	1401.388061523438	969.0084228515625	470.0592041015625	1278.972778320312	963.3624267578125	469.4997863769531	1079.151977539062	1012.993896484375	415.93798828125	1055.82958984375	948.3068237304688	388.8383483886719	893.837646484375	1143.182983398438	453.5400390625	868.3668823242188	1125.213745117188	465.3929138183594	983.2355346679688	1055.830810546875	369.204345703125	724.7949829101562	1209.645874023438	439.905517578125	787.2615966796875	1158.598388671875	395.4526672363281	811.0360717773438	1201.688842773438	85.49150085449219	1415.858764648438	936.49951171875	18.24409103393555	1357.996215820312	927.9447631835938	-39.60324859619141	1093.696899414062	923.8303833007812	48.87603378295898	1083.277587890625	893.267822265625	9.560760498046875	863.5391845703125	1013.723266601562	-70.89544677734375	868.228271484375	985.9473876953125	-55.0194206237793	1027.729614257812	950.443603515625	-1.71291971206665	677.3895263671875	1001.398071289062	-8.746828079223633	745.50634765625	1033.980834960938	-71.62560272216797	753.4042358398438	1001.19384765625	179.5039215087891	1586.369506835938	888.2300415039062	275.4688720703125	1644.046508789062	1070.256225585938	182.9889068603516	1639.0888671875	1055.960327148438	324.5127258300781	1583.235107421875	912.30126953125	394.1642761230469	953.2490844726562	925.2409057617188	23.04712677001953	958.4066772460938	932.0325927734375	86.25719451904297	965.3706665039062	1054.853881835938	338.3807983398438	959.4149169921875	1059.0283203125	354.1891174316406	490.5215454101562	964.1923828125	376.4817504882812	632.1319580078125	966.7769775390625	336.3773498535156	52.46156311035156	866.0101928710938	355.0078125	267.5870361328125	909.5947875976562	253.7883605957031	35.75768280029297	1066.8798828125	225.4947967529297	32.73777770996094	989.1566162109375	336.2420043945312	43.55546188354492	989.915283203125	281.0647888183594	51.28485870361328	814.654052734375	45.51565551757812	485.0707092285156	988.5865478515625	20.33031463623047	751.533203125	1006.966491699219	68.28594970703125	44.95339202880859	909.17138671875	55.30014419555664	360.9290771484375	992.378662109375	110.6837463378906	42.66390609741211	1105.014404296875	152.7913208007812	36.70103454589844	1049.329467773438	42.27334594726562	36.63142395019531	1011.677307128906	118.2815017700195	38.74053192138672	858.060546875	
478	4.77	126.7404479980469	1008.284118652344	837.8382568359375	301.1787719726562	1000.053161621094	850.0139770507812	222.6105651855469	1071.62451171875	857.8825073242188	219.6146087646484	1256.816528320312	1103.8115234375	229.0298614501953	1189.25244140625	840.0203857421875	248.9936981201172	1434.723388671875	882.4989624023438	231.0700073242188	1356.385498046875	1040.769897460938	171.1886444091797	1299.228881835938	826.3599853515625	354.3414916992188	1394.275268554688	876.5016479492188	399.3535461425781	1401.3720703125	970.15869140625	468.7762756347656	1278.77880859375	963.8306274414062	467.423828125	1078.280395507812	1011.407409667969	412.9382934570312	1056.049438476562	947.1410522460938	387.4953002929688	888.943115234375	1137.241088867188	452.0270080566406	864.1474609375	1118.13916015625	463.6613464355469	981.1626586914062	1052.063110351562	368.3190612792969	718.0170288085938	1198.326782226562	438.5834350585938	782.0358276367188	1148.9189453125	394.3656005859375	804.38671875	1192.94091796875	84.31007385253906	1415.91357421875	937.7637939453125	16.99908828735352	1358.04443359375	929.2277221679688	-41.63817977905273	1093.929809570312	926.5941772460938	46.68894958496094	1083.038330078125	895.2056884765625	8.795820236206055	863.9557495117188	1016.469421386719	-72.31311798095703	869.0635375976562	990.8346557617188	-56.75109100341797	1028.047973632812	953.6224365234375	-4.581606388092041	677.7342529296875	1005.689331054688	-9.923951148986816	746.1428833007812	1037.953857421875	-73.81826019287109	754.4397583007812	1007.009216308594	177.8167266845703	1586.20654296875	889.1949462890625	273.8433227539062	1644.494018554688	1071.02978515625	181.4094543457031	1639.327880859375	1056.865112304688	322.8905029296875	1583.421997070312	913.198974609375	392.85693359375	953.3019409179688	925.5509643554688	21.92655181884766	958.3643798828125	933.3901977539062	85.37704467773438	965.1192626953125	1056.121459960938	337.66259765625	959.3306884765625	1059.549194335938	353.5560302734375	490.5672607421875	963.5269775390625	375.7029113769531	632.1367797851562	966.318359375	335.8999328613281	52.35531234741211	865.9019165039062	354.4500427246094	267.7728881835938	908.89697265625	253.9817047119141	35.80516815185547	1067.057373046875	225.4349212646484	32.87429428100586	989.3556518554688	336.1896667480469	43.61747741699219	989.8825073242188	280.4038391113281	51.13933181762695	814.7210083007812	45.04817581176758	484.9951782226562	986.565185546875	19.58020973205566	751.3106689453125	1007.066955566406	68.24722290039062	44.86956405639648	909.0966796875	55.23716735839844	361.1500244140625	990.4705200195312	110.6888809204102	42.67851638793945	1104.971923828125	152.7568817138672	36.65104675292969	1049.29052734375	42.30832290649414	36.63957595825195	1011.67236328125	118.2167663574219	38.59356689453125	858.0368041992188	
